<svg xmlns="http://www.w3.org/2000/svg" width="53.365" height="54.142" viewBox="0 0 53.365 54.142">
  <g id="Group_22306" data-name="Group 22306" transform="translate(13909.243 14407.143)">
    <rect id="Rectangle_5495" data-name="Rectangle 5495" width="53" height="53" transform="translate(-13909 -14406)" fill="#fff" opacity="0"/>
    <g id="Group_13600" data-name="Group 13600" transform="translate(-13910 -14380.5) rotate(-45)">
      <path id="Path_76300" data-name="Path 76300" d="M18.4,0q8,0,16,0a3.49,3.49,0,0,1,1.9.536c.247.155.246.159.051.356L28.518,8.827c-.244.247-.492.493-.731.745-.09.095-.151.1-.249.007q-1.958-1.965-3.921-3.925Q21.055,3.092,18.5.526c-.114-.115-.176-.074-.264.014Q16.268,2.513,14.3,4.482,11.973,6.813,9.64,9.14c-.183.182-.379.351-.545.55-.1.125-.175.117-.291,0Q7.254,8.147,5.693,6.613q-2.8-2.767-5.6-5.532C-.03.963-.031.9.1.8A3.285,3.285,0,0,1,2.259,0Q10.33,0,18.4,0Z" transform="translate(1.07 0)" fill="#fe6400"/>
      <path id="Path_76301" data-name="Path 76301" d="M9.634,18.233q0,8.061,0,16.122a3.311,3.311,0,0,1-.583,1.886c-.1.146-.168.172-.308.033q-2.379-2.363-4.77-4.715-1.6-1.583-3.2-3.168C.583,28.205.4,28.01.2,27.836c-.137-.119-.133-.2-.007-.321q1.172-1.159,2.333-2.327,3.3-3.3,6.6-6.6c.228-.228.227-.23,0-.456L.715,9.726C.508,9.518.309,9.3.092,9.1c-.121-.11-.122-.174,0-.292Q1.869,7.021,3.64,5.218L7.219,1.594Q7.935.869,8.65.139c.185-.189.194-.189.344.02a3.406,3.406,0,0,1,.641,2.054q0,7.826,0,15.651Z" transform="translate(29.256 1.213)" fill="#fe6400"/>
      <path id="Path_76302" data-name="Path 76302" d="M0,17.921Q0,9.89,0,1.859A3.466,3.466,0,0,1,.464.12C.551-.033.615-.034.734.085q1.121,1.12,2.25,2.232Q6.2,5.493,9.422,8.664c.158.156.043.221-.043.307q-1.5,1.506-3.01,3.009l-5.5,5.5q-.238.239-.483.471c-.086.082-.091.141,0,.233q2.8,2.789,5.594,5.585Q7.766,25.55,9.55,27.329c.14.138.075.21-.027.312q-2.217,2.238-4.431,4.481l-3.8,3.844a3.469,3.469,0,0,0-.253.266c-.1.125-.171.086-.255-.017A3.31,3.31,0,0,1,0,34.064Q0,26.443,0,18.822Z" transform="translate(0 1.505)" fill="#fe6400"/>
      <path id="Path_76303" data-name="Path 76303" d="M0,9.168Q4.207,4.952,8.423.747c.222-.222.451-.438.662-.669.1-.114.166-.095.263,0q1.908,1.894,3.822,3.784l4.135,4.084c.218.216.432.436.657.644.106.1.095.155-.014.236a3.346,3.346,0,0,1-1.821.658" transform="translate(19.613 29.405)" fill="#fe6400"/>
      <path id="Path_76304" data-name="Path 76304" d="M.153,8.922c-.2-.116-.2-.128-.037-.29Q2.5,6.223,4.879,3.815,6.72,1.951,8.555.08c.145-.149.217-.062.312.033l2.78,2.78q3.09,3.091,6.179,6.185" transform="translate(1.464 29.503)" fill="#fe6400"/>
      <path id="Path_76305" data-name="Path 76305" d="M8.887,17.732c-.106-.028-.165-.118-.236-.188q-1.2-1.186-2.4-2.375L1.772,10.742C1.218,10.2.665,9.649.106,9.108-.023,8.984-.044,8.9.1,8.762q1.85-1.836,3.689-3.685Q6.28,2.583,8.772.087c.118-.118.178-.114.293,0q3.891,3.9,7.79,7.787c.261.26.516.527.78.783.107.1.108.175,0,.284q-1.661,1.667-3.313,3.343c-1.114,1.131-2.222,2.268-3.335,3.4-.649.659-1.306,1.312-1.959,1.968A.215.215,0,0,1,8.887,17.732Z" transform="translate(10.527 1.339)" fill="#febd01"/>
      <path id="Path_76306" data-name="Path 76306" d="M8.907,17.722a.211.211,0,0,1-.138-.079q-1.314-1.3-2.63-2.6-1.573-1.553-3.148-3.1Q1.522,10.482.056,9.027c-.083-.082-.065-.134,0-.2.293-.3.581-.61.877-.91Q2.03,6.8,3.131,5.69q1.8-1.815,3.6-3.63C7.381,1.406,8.029.753,8.67.091c.12-.124.192-.119.309,0Q10.427,1.549,11.884,3l3.933,3.934c.6.6,1.2,1.206,1.809,1.805.12.118.14.193,0,.33q-3.257,3.241-6.5,6.494Q10.093,16.6,9.06,17.633C9.017,17.677,8.976,17.724,8.907,17.722Z" transform="translate(19.945 10.67)" fill="#febd01"/>
      <path id="Path_76307" data-name="Path 76307" d="M17.7,8.818c0,.057-.051.077-.083.11q-1.489,1.507-2.978,3.015L9.9,16.749c-.278.281-.564.555-.834.844-.12.128-.2.116-.313,0q-1.346-1.357-2.7-2.7L2.12,10.953C1.44,10.273.764,9.591.079,8.917c-.114-.113-.1-.173.006-.279Q2.17,6.559,4.246,4.473q2.2-2.2,4.393-4.394c.113-.114.185-.1.285,0q1.159,1.154,2.322,2.3,1.913,1.889,3.829,3.776Q16.34,7.412,17.6,8.669C17.643,8.711,17.7,8.745,17.7,8.818Z" transform="translate(1.21 10.793)" fill="#febd01"/>
      <path id="Path_76308" data-name="Path 76308" d="M8.781,0A.266.266,0,0,1,8.92.089Q11.1,2.247,13.287,4.4q2.118,2.092,4.234,4.185c.216.213.215.214,0,.427l-4.27,4.267c-1.433,1.432-2.869,2.861-4.294,4.3-.152.154-.226.1-.344-.014q-1.422-1.429-2.849-2.852L.542,9.491c-.15-.149-.294-.3-.451-.446-.126-.114-.119-.2,0-.317C.964,7.855,1.83,6.976,2.7,6.1Q4.524,4.253,6.352,2.408,7.482,1.266,8.607.12C8.659.067,8.7.005,8.781,0Z" transform="translate(10.651 20.12)" fill="#febd01"/>
    </g>
  </g>
</svg>
