<svg xmlns="http://www.w3.org/2000/svg" width="40" height="40" viewBox="0 0 40 40">
  <path id="Icon_awesome-phone-square" data-name="Icon awesome-phone-square" d="M4.286,2.25H35.714A4.286,4.286,0,0,1,40,6.536V37.964a4.286,4.286,0,0,1-4.286,4.286H4.286A4.286,4.286,0,0,1,0,37.964V6.536A4.286,4.286,0,0,1,4.286,2.25ZM31.607,36.536A1.34,1.34,0,0,0,32.912,35.5l1.339-5.8a1.339,1.339,0,0,0-.777-1.532l-6.25-2.678a1.339,1.339,0,0,0-1.564.383l-2.768,3.383A20.7,20.7,0,0,1,13,19.358l3.383-2.768a1.339,1.339,0,0,0,.383-1.564l-2.679-6.25A1.339,1.339,0,0,0,12.556,8l-5.8,1.339a1.339,1.339,0,0,0-1.038,1.3A25.892,25.892,0,0,0,31.607,36.536Z" transform="translate(0 -2.25)" fill="#fd7e14"/>
</svg>
