<svg xmlns="http://www.w3.org/2000/svg" width="40" height="36.923" viewBox="0 0 40 36.923">
  <g id="Icon_ionic-md-wallet" data-name="Icon ionic-md-wallet" transform="translate(-3.375 -4.5)">
    <path id="Path_112809" data-name="Path 112809" d="M18.262,31.163V14.76a4.105,4.105,0,0,1,4.109-4.106H41.328V8.606A4.091,4.091,0,0,0,37.257,4.5H7.609A4.157,4.157,0,0,0,3.375,8.538V37.385a4.157,4.157,0,0,0,4.234,4.038H37.247a4.085,4.085,0,0,0,4.07-4.106V35.269H22.361A4.1,4.1,0,0,1,18.262,31.163Z" transform="translate(0 0)" fill="#fd7e14"/>
    <path id="Path_112810" data-name="Path 112810" d="M17.227,13.47V26.741a1.521,1.521,0,0,0,1.517,1.517H36.469a1.521,1.521,0,0,0,1.517-1.517V13.47a1.521,1.521,0,0,0-1.517-1.517H18.743A1.521,1.521,0,0,0,17.227,13.47Zm7.308,9.659a3.035,3.035,0,1,1,2.834-2.834A3.035,3.035,0,0,1,24.535,23.129Z" transform="translate(5.389 2.856)" fill="#fd7e14"/>
  </g>
</svg>
